<svg xmlns="http://www.w3.org/2000/svg" fill="none" viewBox="0 0 24 24"><path fill="url(#a)" d="M17.5 4.5c-2 0-4 .4-5.5 1.5a9.3 9.3 0 0 0-5.5-1.5c-1.5 0-3 .2-4.3.8A2 2 0 0 0 1 7v11.3a2 2 0 0 0 2.5 2 12.4 12.4 0 0 1 7.6.5 2 2 0 0 0 1.8 0 12.4 12.4 0 0 1 7.6-.6 2 2 0 0 0 2.5-1.9V7.1a2 2 0 0 0-1.2-1.8c-1.3-.6-2.9-.8-4.3-.8ZM21 17.2c0 .7-.6 1.1-1.2 1l-2.3-.2a12 12 0 0 0-5.5 1.5V8a12 12 0 0 1 8.2-1.2c.5 0 .8.5.8 1v9.4Z"/><path fill="url(#b)" d="M14 11a.7.7 0 0 1-.7-.5c-.2-.4 0-.8.4-1 1.6-.5 3.6-.6 5.4-.4a.8.8 0 0 1-.2 1.5 12 12 0 0 0-4.7.4H14Z"/><path fill="url(#c)" d="M14 13.7a.7.7 0 0 1-.7-.5c-.2-.4 0-.9.4-1 1.6-.5 3.6-.6 5.4-.4a.8.8 0 0 1-.2 1.4 11.8 11.8 0 0 0-5 .5Z"/><path fill="url(#d)" d="M14 16.3a.7.7 0 0 1-.7-.5c-.2-.4 0-.8.4-1 1.6-.4 3.6-.6 5.4-.4.4 0 .7.4.7.8 0 .5-.5.8-.9.7a11.8 11.8 0 0 0-5 .4Z"/><defs><linearGradient id="a" x1="12" x2="12" y1="4.5" y2="21.1" gradientUnits="userSpaceOnUse"><stop stop-color="#B6F829"/><stop offset="1" stop-color="#67DD0A"/></linearGradient><linearGradient id="b" x1="16.5" x2="16.5" y1="9" y2="11" gradientUnits="userSpaceOnUse"><stop stop-color="#B6F829"/><stop offset="1" stop-color="#67DD0A"/></linearGradient><linearGradient id="c" x1="16.5" x2="16.5" y1="11.7" y2="13.7" gradientUnits="userSpaceOnUse"><stop stop-color="#B6F829"/><stop offset="1" stop-color="#67DD0A"/></linearGradient><linearGradient id="d" x1="16.5" x2="16.5" y1="14.3" y2="16.3" gradientUnits="userSpaceOnUse"><stop stop-color="#B6F829"/><stop offset="1" stop-color="#67DD0A"/></linearGradient></defs></svg>