<svg xmlns="http://www.w3.org/2000/svg" fill="none" viewBox="0 0 24 24"><path fill="url(#a)" d="M12.7 15.7a1 1 0 0 0-.3-1l-2-2.1c1.7-2 3-4.2 3.7-6.6h2c.4 0 .9-.5.9-1s-.4-1-1-1h-6V3c0-.5-.4-1-1-1a1 1 0 0 0-1 1v1H2a1 1 0 0 0-1 1c0 .5.4 1 1 1h10.2A15 15 0 0 1 9 11.3a11 11 0 0 1-2-2.8.9.9 0 0 0-.8-.5 1 1 0 0 0-.8 1.3 15 15 0 0 0 2.3 3.3l-4.4 4.3a1 1 0 0 0 0 1.4c.4.4 1 .4 1.4 0L9 14l2 2a1 1 0 0 0 1.7-.3Zm4.8-5.7c-.6 0-1.1.4-1.4 1l-3.6 9.7a1 1 0 0 0 .8 1.3c.4 0 .8-.2 1-.6L15 19h5l.9 2.4c.1.4.5.6.8.6a1 1 0 0 0 1-1.3L18.8 11c-.3-.5-.8-.9-1.4-.9Zm-1.6 7 1.6-4.3 1.6 4.3H16Z"/><defs><linearGradient id="a" x1="11.8" x2="11.8" y1="2" y2="22" gradientUnits="userSpaceOnUse"><stop stop-color="#B6F829"/><stop offset="1" stop-color="#67DD0A"/></linearGradient></defs></svg>