<svg xmlns="http://www.w3.org/2000/svg" fill="none" viewBox="0 0 104 38"><path fill="#141414" d="M8 3.7v27h13L20 37H.1V3.7H8Zm26.4 7c4 0 7 1.2 9.2 3.6a14 14 0 0 1 3.3 10c0 2.7-.5 5-1.5 7.1a11 11 0 0 1-4.4 4.7c-1.8 1.2-4 1.7-6.6 1.7a12 12 0 0 1-9.2-3.5 14.3 14.3 0 0 1-3.3-10c0-2.8.5-5.2 1.5-7.2s2.5-3.6 4.3-4.7c2-1.1 4.1-1.7 6.7-1.7Zm0 5.6c-1.5 0-2.7.6-3.4 2a12 12 0 0 0-1.2 6c0 2.7.4 4.7 1.1 6 .8 1.3 2 2 3.5 2s2.7-.7 3.5-2a13 13 0 0 0 1.1-6c0-2.8-.4-4.8-1.1-6.1a4 4 0 0 0-3.5-2Zm31.4-5.6a8 8 0 0 1 7 3.6 17 17 0 0 1 2.5 10c0 2.6-.4 5-1.2 7-.8 2-2 3.6-3.5 4.8a8.6 8.6 0 0 1-5.4 1.7 8.4 8.4 0 0 1-6.7-3.2l-.4 2.4h-6.7V1.4L59 .6V14a8.2 8.2 0 0 1 6.8-3.4ZM63 32.3c3 0 4.4-2.7 4.4-8 0-3-.3-5.2-1-6.3a3.4 3.4 0 0 0-3.1-1.7c-1.7 0-3.1 1-4.3 3v10.5a6 6 0 0 0 1.7 1.9c.7.4 1.5.6 2.3.6Zm28-21.6c4 0 7 1.2 9.2 3.6a14 14 0 0 1 3.4 10c0 2.7-.6 5-1.6 7.1a11 11 0 0 1-4.3 4.7c-1.9 1.2-4 1.7-6.6 1.7a12 12 0 0 1-9.2-3.5 14.3 14.3 0 0 1-3.3-10c0-2.8.5-5.2 1.5-7.2a11.5 11.5 0 0 1 11-6.4Zm0 5.6c-1.5 0-2.6.6-3.4 2a12 12 0 0 0-1.1 6c0 2.7.3 4.7 1 6a4 4 0 0 0 3.6 2c1.5 0 2.7-.7 3.4-2 .8-1.3 1.2-3.3 1.2-6 0-2.8-.4-4.8-1.2-6.1-.7-1.3-1.9-2-3.4-2Z"/></svg>